<?xml version="1.0" encoding="UTF-8"?>
<svg id="Layer_2" xmlns="http://www.w3.org/2000/svg" viewBox="0 0 2505.8 945.67">
  <defs>
    <style>
      .cls-1 {
        fill: none;
        stroke-width: 47px;
      }

      .cls-1, .cls-2 {
        stroke: #fff;
      }

      .cls-1, .cls-2, .cls-3 {
        stroke-miterlimit: 10;
      }

      .cls-4, .cls-2, .cls-3 {
        fill: #fff;
      }

      .cls-2 {
        stroke-width: 8px;
      }

      .cls-3 {
        stroke: #151515;
      }
    </style>
  </defs>
  <g id="Layer_1-2" data-name="Layer_1">
    <g>
      <g>
        <path class="cls-2" d="M1989.33,771.96c96.42-96.89,192.85-193.78,289.27-290.67-96.58-104.72-193.17-209.43-289.75-314.15,8.87-8.11,17.74-16.21,26.62-24.32,103.52,113.36,207.05,226.73,310.57,340.09-103.79,104.9-207.58,209.79-311.37,314.69-8.45-8.55-16.9-17.09-25.35-25.64Z"/>
        <path class="cls-2" d="M342.23,799.36c-96.42-96.89-192.85-193.78-289.27-290.67,96.58-104.72,193.17-209.43,289.75-314.15-8.87-8.11-17.74-16.21-26.62-24.32C212.57,283.58,109.04,396.95,5.52,510.31c103.79,104.9,207.58,209.79,311.37,314.69,8.45-8.55,16.9-17.09,25.35-25.64Z"/>
        <path class="cls-1" d="M1844.98,177.53c-54.96,198.48-109.93,396.96-164.89,595.44"/>
      </g>
      <g>
        <g>
          <rect class="cls-3" x="455.84" y="48.43" width="1141.2" height="40.55"/>
          <path class="cls-4" d="M566.34,549.95c0-253.7,206.4-460.1,460.1-460.1s460.1,206.4,460.1,460.1h41.42c0-67.7-13.26-133.38-39.42-195.22-25.26-59.72-61.42-113.36-107.47-159.41-46.05-46.05-99.68-82.21-159.41-107.47-61.84-26.16-127.52-39.42-195.22-39.42s-133.38,13.26-195.22,39.42c-59.72,25.26-113.36,61.42-159.41,107.47-46.05,46.05-82.21,99.68-107.47,159.41-26.16,61.84-39.42,127.52-39.42,195.22h41.42Z"/>
          <rect class="cls-4" x="958.46" y=".72" width="135.98" height="135.98"/>
          <rect class="cls-4" x="484.03" y="470.21" width="135.98" height="135.98"/>
          <rect class="cls-4" x="1432.44" y="470.21" width="135.98" height="135.98"/>
          <circle class="cls-4" cx="1532.16" cy="68.71" r="68.71"/>
          <circle class="cls-4" cx="521.1" cy="68.71" r="68.71"/>
        </g>
        <g>
          <path class="cls-4" d="M914.28,810.44h224.7c8.03,0,14.54,6.52,14.54,14.54v91.15c0,8.03-6.52,14.54-14.54,14.54h-224.7c-8.03,0-14.54-6.52-14.54-14.54v-91.15c0-8.03,6.52-14.54,14.54-14.54Z"/>
          <path class="cls-4" d="M1055.34,190.65h-17.36v361.73c53.29,12.39,44.08,94.11-11.35,93.66-55.42.46-64.63-81.26-11.34-93.66V190.65h-17.36c-91.74,178.94-299.16,461.77-67.63,588.78,6.78,3.61,12.04,9.26,15.22,16.01h162.23c3.17-6.72,8.43-12.4,15.22-16.02,231.5-127.11,24.15-409.69-67.63-588.78Z"/>
        </g>
      </g>
    </g>
  </g>
</svg>